<svg t="1703640907662" class="icon" viewBox="0 0 1024 1024" version="1.1" xmlns="http://www.w3.org/2000/svg" p-id="5921" width="200" height="200"><path d="M640 970.666667H384c-231.765333 0-330.666667-98.901333-330.666667-330.666667V384c0-231.765333 98.901333-330.666667 330.666667-330.666667h256c231.765333 0 330.666667 98.901333 330.666667 330.666667v256c0 231.765333-98.901333 330.666667-330.666667 330.666667z m-256-853.333334C187.136 117.333333 117.333333 187.136 117.333333 384v256c0 196.864 69.802667 266.666667 266.666667 266.666667h256c196.864 0 266.666667-69.802667 266.666667-266.666667V384c0-196.864-69.76-266.666667-266.666667-266.666667z" fill="#292D32" p-id="5922"></path><path d="M85.333333 544a32.213333 32.213333 0 0 1-32-32 32.213333 32.213333 0 0 1 32-32h853.333334a32.213333 32.213333 0 0 1 32 32 32.213333 32.213333 0 0 1-32 32z" fill="#292D32" p-id="5923"></path><path d="M320 917.333333V512a32.213333 32.213333 0 0 1 32-32A32.213333 32.213333 0 0 1 384 512v405.333333a32.213333 32.213333 0 0 1-32 32 32.213333 32.213333 0 0 1-32-32zM640 938.666667V512a32.213333 32.213333 0 0 1 32-32 32.213333 32.213333 0 0 1 32 32v426.666667a32.213333 32.213333 0 0 1-32 32A32.213333 32.213333 0 0 1 640 938.666667z" fill="#292D32" p-id="5924"></path><path d="M320 512V85.333333a32.213333 32.213333 0 0 1 32-32A32.213333 32.213333 0 0 1 384 85.333333v426.666667a32.213333 32.213333 0 0 1-32 32 32.213333 32.213333 0 0 1-32-32zM640 512V108.373333a32.213333 32.213333 0 0 1 32-32 32.213333 32.213333 0 0 1 32 32V512a32.213333 32.213333 0 0 1-32 32A32.213333 32.213333 0 0 1 640 512z" fill="#292D32" p-id="5925"></path></svg>