<svg t="1703640951786" class="icon" viewBox="0 0 1024 1024" version="1.1" xmlns="http://www.w3.org/2000/svg" p-id="6919" width="200" height="200"><path d="M0 0h204.8v204.8H0V0z m273.06496 204.8h204.8V0h-204.8v204.8z m273.07008 0h204.78976V0h-204.78976v204.8z m273.07008-204.8v204.8H1024V0h-204.79488zM0 477.86496h204.8v-204.8H0v204.8z m273.06496 0h204.8v-204.8h-204.8v204.8z m273.07008 0h204.78976v-204.8h-204.78976v204.8z m273.07008 0H1024v-204.8h-204.79488v204.8zM0 750.9248h204.8v-204.78976H0v204.78976z m273.06496 0h204.8v-204.78976h-204.8v204.78976z m273.07008 0h204.78976v-204.78976h-204.78976v204.78976z m273.07008 0H1024v-204.78976h-204.79488v204.78976zM0 1024h204.8v-204.79488H0V1024z m273.06496 0h204.8v-204.79488h-204.8V1024z m273.07008 0h204.78976v-204.79488h-204.78976V1024z m273.07008 0H1024v-204.79488h-204.79488V1024z" p-id="6920"></path></svg>